<?xml version="1.0" encoding="utf-8"?>
<!-- Generator: Adobe Illustrator 28.2.0, SVG Export Plug-In . SVG Version: 6.00 Build 0)  -->
<svg version="1.1" id="Calque_2_00000135681259990643710010000007095737927880154297_"
	 xmlns="http://www.w3.org/2000/svg" xmlns:xlink="http://www.w3.org/1999/xlink" x="0px" y="0px" viewBox="0 0 1866.1 442.4"
	 style="enable-background:new 0 0 1866.1 442.4;" xml:space="preserve">
<style type="text/css">
	.st0{enable-background:new    ;}
	.st1{fill:#FCF5EB;}
</style>
<g class="st0">
	<path class="st1" d="M154.9,67.1h7.5c-8.1,13-14.3,26.9-17.8,41.5L91.1,321.8H71L17.8,108.6C13.9,94,8.1,80.1,0,67.1h35
		c-1.9,13-1.3,25.9,1.6,38.2L81,282.9v-0.3l44.4-177.3c3.2-12.3,3.6-25.3,1.6-38.2H154.9z"/>
</g>
<g class="st0">
	<path class="st1" d="M134.2,194.5c0-70.3,57-127.4,127.4-127.4c70,0,127,57,127,127.4c0,70-57,127.4-127,127.4
		C191.2,321.8,134.2,264.5,134.2,194.5z M153.6,194.5c0,60,48,107.9,107.9,107.9c60,0,107.9-48,107.9-107.9
		c0-60-48-107.9-107.9-107.9C201.6,86.5,153.6,134.5,153.6,194.5z"/>
</g>
<g class="st0">
	<path class="st1" d="M461.2,302.4c13.9,0,27.5-2.6,40.2-7.8v27.2H353.9L470.2,86.5h-76.2c-13.9,0-27.5,2.6-40.2,7.8V67.1h147.5
		L385,302.4H461.2z"/>
</g>
<g class="st0">
	<path class="st1" d="M784.6,321.8V305c-18.8,10.7-40.5,16.9-63.8,16.9c-70,0-127-57-127-127c0-70.3,57-127.4,127-127.4
		c31.8,0,60.6,11.7,83,30.8v36.3c0,0-35-47.3-83.3-47.3c-59.6,0-107.6,47.6-107.6,107.6c0,60,48.3,107.6,108.2,107.6
		c25.3,0,52.8-13,63.5-22.4v-99.2h-85.2c-13.6,0-27.2,2.6-40.2,7.8v-27.2h125.4h19.1v19.4V282c0,13.6,2.9,27.2,8.1,39.9H784.6z"/>
</g>
<g class="st0">
	<path class="st1" d="M962.2,281.6v-40.2c0-24.3-25-60.9-52.5-60.9c-27.9,0-55.7,30.8-56.4,62.9c0,0.6,0,1,0,1.6v36.6
		c0,13.6,2.6,27.5,7.8,40.2h-35c5.2-12.6,7.8-26.6,7.8-40.2V107.3c0-13.6-2.6-27.2-7.8-40.2h35l63.8,0.3c31.1,0,56.4,25.3,56.4,56.4
		c0,14.3-5.2,27.5-13.9,37.6c-5.5,6.2-12.3,11-20.1,14.6c0.3,0,0.3,0.3,0.6,0.3c1.6,1.3,3.6,2.6,5.5,4.2c1.6,1.3,2.9,2.9,4.5,4.2
		c5.5,5.5,10,11.7,13.9,18.5c2.9,5.8,5.2,11.7,6.8,18.1c1.9,6.2,2.6,13,2.6,19.8v40.5c0,13.6,2.9,27.5,8.1,40.2h-35.3
		C959.6,309.2,962.2,295.2,962.2,281.6z M920.4,161.4h4.5c20.4,0,37.3-16.9,37.3-37.6c0-20.4-16.9-37.3-37.3-37.3h-69.7
		c-1.3,6.8-1.9,13.9-1.9,20.7v85.9c3.6-4.5,8.1-8.8,12.6-12.6C880.8,168.5,899.6,161.4,920.4,161.4z"/>
	<path class="st1" d="M1157.9,321.8h-7.1h-27.9c1.9-13,1.3-25.9-1.6-38.2l-25.9-103.1h-1.9c-14.3,0-27.5,4.9-38.2,12.6l-22.7,90.4
		c-2.9,12.3-3.6,25.3-1.6,38.2h-35c8.1-13,13.9-26.9,17.5-41.5l43.8-174.4c3.2-12.6,2.6-26.3-1.3-38.9h42.1
		c-3.9,12.6-4.5,26.3-1.3,38.9l43.8,174.4C1144,294.9,1150.2,308.9,1157.9,321.8z M1090.8,161.4l-13.9-55.1V106v0.3l-15.6,62.2
		C1070.4,164.6,1080.5,162,1090.8,161.4z"/>
	<path class="st1" d="M1318,123.8c0,14.3-5.5,27.5-14.3,37.6c-10.4,11.7-25.6,19.1-42.5,19.1h-7.1c-35,0-63.5,28.2-64.5,62.9
		c0,0.6,0,1,0,1.6v36.6c0,13.6,2.6,27.5,8.1,40.2h-35.3c5.2-12.6,8.1-26.6,8.1-40.2V107.3c0-13.6-2.9-27.2-8.1-40.2h35.3l63.5,0.3
		C1292.4,67.4,1318,92.7,1318,123.8z M1261.3,161.4c20.7,0,37.3-16.9,37.3-37.6c0-20.4-16.5-37.3-37.3-37.3H1192
		c-1.6,6.8-2.3,13.9-2.3,20.7v85.9c3.9-4.5,8.1-8.8,12.6-12.6c14.9-12,33.7-19.1,54.4-19.1H1261.3z"/>
</g>
<g class="st0">
	<path class="st1" d="M1474.6,281.6c0,13.6,2.9,27.2,8.1,40.2h-35.3c5.2-13,8.1-26.6,8.1-40.2V180.5h-44.7
		c-35,0-63.5,27.9-64.2,62.9v38.2c0,13.6,2.6,27.2,7.8,40.2h-35c4.9-12.3,7.5-25.3,7.8-38.6v-176c0-13.6-2.6-27.2-7.8-40.2h35
		c-5.2,13-7.8,26.6-7.8,40.2v85.9c3.6-4.9,7.8-9.1,12.6-12.6c14.6-12,33.7-19.4,54.1-19.4h42.1v-53.8c0-13.6-2.9-27.2-8.1-40.2h35.3
		c-5.2,13-8.1,26.6-8.1,40.2V281.6z"/>
</g>
<g class="st0">
	<path class="st1" d="M1522.8,107.3v174.4c0,13.6,2.9,27.2,8.1,40.2h-35.3c5.2-13,8.1-26.6,8.1-40.2V107.3c0-13.6-2.9-27.2-8.1-40.2
		h35.3C1525.8,80.1,1522.8,93.7,1522.8,107.3z"/>
	<path class="st1" d="M1692.7,67.4l-103.1,105.7l103.1,148.8h-35.3c0-11-3.2-21.7-9.4-30.8L1576,187l-11.3,11.3v83.3
		c0,13.6,2.6,27.2,8.1,40.2h-35.3c5.2-13,8.1-26.6,8.1-40.2V107.3c0-13.6-2.9-27.2-8.1-40.2h35.3c-5.5,13-8.1,26.6-8.1,40.2v63.5
		l86.9-88.8c3.9-3.9,5.8-9.1,5.8-14.9h35.6L1692.7,67.4z"/>
	<path class="st1" d="M1861.5,321.8h-7.1h-27.9c1.9-13,1.3-25.9-1.6-38.2L1799,180.5h-1.9c-14.3,0-27.5,4.9-38.2,12.6l-22.7,90.4
		c-2.9,12.3-3.6,25.3-1.6,38.2h-35c8.1-13,13.9-26.9,17.5-41.5l43.8-174.4c3.2-12.6,2.6-26.3-1.3-38.9h42.1
		c-3.9,12.6-4.5,26.3-1.3,38.9l43.8,174.4C1847.6,294.9,1853.7,308.9,1861.5,321.8z M1794.4,161.4l-13.9-55.1V106v0.3l-15.6,62.2
		C1774,164.6,1784.1,162,1794.4,161.4z"/>
</g>
</svg>
